<svg xmlns="http://www.w3.org/2000/svg" width="331.907" height="83.751" viewBox="0 0 331.907 83.751">
  <g id="winepass-lila" transform="translate(-2130.909 -539.444)">
    <path id="Trazado_12" data-name="Trazado 12" d="M2459.118,539.444H2217.372a7.073,7.073,0,0,1-14.145,0h-68.62a3.71,3.71,0,0,0-3.7,3.7V619.5a3.71,3.71,0,0,0,3.7,3.7h68.62a7.073,7.073,0,0,1,14.145,0h241.746a3.709,3.709,0,0,0,3.7-3.7V543.143a3.71,3.71,0,0,0-3.7-3.7" fill="#73548b"/>
    <path id="Trazado_13" data-name="Trazado 13" d="M2162.474,597.178l-6.546-31.742h8.16l4.632,29.261h-1.285l7.144-29.261h6.008l-7.263,31.742Zm21.879,0-7.383-31.742h6.008l7.2,29.261H2188.9l4.6-29.261h8.159l-6.516,31.742Z" fill="#fff"/>
    <rect id="Rectángulo_7" data-name="Rectángulo 7" width="7.771" height="31.742" transform="translate(2206.59 565.436)" fill="#fff"/>
    <path id="Trazado_14" data-name="Trazado 14" d="M2222.132,565.436h7.861v31.742h-7.861Zm22.446,31.742V579.334a11.455,11.455,0,0,0-.613-3.87,5.3,5.3,0,0,0-2.092-2.706,7.29,7.29,0,0,0-4.08-.986,7.513,7.513,0,0,0-4.035,1.091,7.628,7.628,0,0,0-2.764,2.989,9.244,9.244,0,0,0-1,4.379l-2.661-1.645a13.74,13.74,0,0,1,1.809-7.068,13.221,13.221,0,0,1,11.611-6.621,12.812,12.812,0,0,1,6.442,1.5,9.588,9.588,0,0,1,3.946,4.244,14.69,14.69,0,0,1,1.329,6.456v20.086Z" fill="#fff"/>
    <path id="Trazado_15" data-name="Trazado 15" d="M2262.959,583.847v-5.589h22.208l-.9,1.494v-.776a8.387,8.387,0,0,0-.927-3.872,7.2,7.2,0,0,0-2.81-2.928,9.236,9.236,0,0,0-4.783-1.121,9.822,9.822,0,0,0-4.976,1.21,8.162,8.162,0,0,0-3.257,3.482,11.9,11.9,0,0,0-1.151,5.44,13.045,13.045,0,0,0,1.1,5.6,7.944,7.944,0,0,0,3.243,3.588,10.241,10.241,0,0,0,5.216,1.239,14.729,14.729,0,0,0,3.616-.388,7.67,7.67,0,0,0,2.5-1.062,5.194,5.194,0,0,0,1.465-1.448,3.678,3.678,0,0,0,.582-1.555h7.831a9.016,9.016,0,0,1-1.329,3.9,12.275,12.275,0,0,1-3.213,3.437,16.372,16.372,0,0,1-5.006,2.45,22.682,22.682,0,0,1-6.711.913,18.331,18.331,0,0,1-8.936-2.093,15.044,15.044,0,0,1-5.964-5.828,18.242,18.242,0,0,1,.03-17.187,15.177,15.177,0,0,1,6.023-5.784,18.371,18.371,0,0,1,8.847-2.077,17.98,17.98,0,0,1,8.892,2.093,14.5,14.5,0,0,1,5.783,5.814,17.764,17.764,0,0,1,2.034,8.653q0,.627-.031,1.344a8.22,8.22,0,0,1-.09,1.046Z" fill="#fff"/>
    <path id="Trazado_16" data-name="Trazado 16" d="M2298.856,565.436h7.861v44.8h-7.861Zm17.874,32.4a12.909,12.909,0,0,1-6.86-1.927,14.581,14.581,0,0,1-5.08-5.276,14.805,14.805,0,0,1-1.929-7.531v-.419l3.886-.09v.3a7.479,7.479,0,0,0,1.165,4.139,8.358,8.358,0,0,0,3.034,2.839,8.368,8.368,0,0,0,9.849-1.329q2.421-2.363,2.421-7.324,0-4.99-2.406-7.307a8.15,8.15,0,0,0-5.873-2.317,8.259,8.259,0,0,0-3.961,1,8.372,8.372,0,0,0-3.048,2.764,7.232,7.232,0,0,0-1.181,4.124l-3.886-.179a14.386,14.386,0,0,1,1.929-7.472,14.077,14.077,0,0,1,5.08-5.1,13.377,13.377,0,0,1,6.86-1.839,14.368,14.368,0,0,1,7.188,1.884,14.1,14.1,0,0,1,5.381,5.53,17.956,17.956,0,0,1,2.047,8.906,18.989,18.989,0,0,1-2,9.117,13.839,13.839,0,0,1-5.321,5.6,14.426,14.426,0,0,1-7.292,1.9" fill="#f28e1e"/>
    <path id="Trazado_17" data-name="Trazado 17" d="M2348.71,597.835a16.133,16.133,0,0,1-6.247-1.121,9.581,9.581,0,0,1-4.214-3.243,8.518,8.518,0,0,1-1.524-5.11,8.032,8.032,0,0,1,1.778-5.366,11.462,11.462,0,0,1,4.8-3.258,25.024,25.024,0,0,1,6.7-1.479,71.552,71.552,0,0,0,7.606-1.031q2.168-.493,2.167-1.6v-.06a3.575,3.575,0,0,0-1.882-3.227,10.358,10.358,0,0,0-5.321-1.136,10.09,10.09,0,0,0-5.545,1.27,4.467,4.467,0,0,0-1.927,4.021h-7.771a10.066,10.066,0,0,1,1.987-6.322,12.306,12.306,0,0,1,5.455-3.931,21.623,21.623,0,0,1,7.861-1.345,22.028,22.028,0,0,1,7.5,1.226,12.388,12.388,0,0,1,5.47,3.706,9.353,9.353,0,0,1,2.062,6.188v14.465q0,1.137.074,2.227a9.951,9.951,0,0,0,.315,1.958,6.7,6.7,0,0,0,.717,1.614,5.8,5.8,0,0,0,.657.9h-7.771a4.915,4.915,0,0,1-.583-.822,8.339,8.339,0,0,1-.673-1.42,11.138,11.138,0,0,1-.447-1.928,15.973,15.973,0,0,1-.15-2.287l1.554,1.076a8.78,8.78,0,0,1-2.734,3.184,13.859,13.859,0,0,1-4.379,2.107,19.537,19.537,0,0,1-5.53.747m1.913-6.187a12.108,12.108,0,0,0,4.544-.837,7.593,7.593,0,0,0,3.377-2.585,7.409,7.409,0,0,0,1.285-4.5v-4.245l1.913,2.153a25.747,25.747,0,0,1-4.6,1.18q-2.689.464-5.44.732a15.487,15.487,0,0,0-5.3,1.225,3.047,3.047,0,0,0-1.778,2.93,3.31,3.31,0,0,0,1.494,2.959,8.289,8.289,0,0,0,4.513.986" fill="#f28e1e"/>
    <path id="Trazado_18" data-name="Trazado 18" d="M2387.8,597.835a22.57,22.57,0,0,1-5.4-.627,15.248,15.248,0,0,1-4.543-1.883,9.7,9.7,0,0,1-3.139-3.123,8.067,8.067,0,0,1-1.15-4.32V587.2h7.831v.538a3.133,3.133,0,0,0,1.778,2.915,10.2,10.2,0,0,0,4.857.971,13.3,13.3,0,0,0,3.153-.359,5.91,5.91,0,0,0,2.392-1.106,2.363,2.363,0,0,0,.911-1.913,2.766,2.766,0,0,0-1.928-2.689,28.505,28.505,0,0,0-6.053-1.466,38.39,38.39,0,0,1-4.483-1.045,16.817,16.817,0,0,1-4.019-1.764,9.1,9.1,0,0,1-2.9-2.75,7.075,7.075,0,0,1-1.091-4.005,7.725,7.725,0,0,1,1.868-5.275,11.619,11.619,0,0,1,5.022-3.244,20.9,20.9,0,0,1,6.949-1.106,18.9,18.9,0,0,1,6.784,1.2,12.319,12.319,0,0,1,5.067,3.438,8.017,8.017,0,0,1,1.927,5.41v.477h-7.77v-.388a3.031,3.031,0,0,0-.867-2.241,5.279,5.279,0,0,0-2.243-1.286,9.924,9.924,0,0,0-2.9-.418,14.267,14.267,0,0,0-2.78.284,5.931,5.931,0,0,0-2.39.986,2.287,2.287,0,0,0-.957,1.958,2.326,2.326,0,0,0,.986,1.943,8.23,8.23,0,0,0,2.75,1.24,39.5,39.5,0,0,0,4.065.881,40.775,40.775,0,0,1,4.408.987,18.445,18.445,0,0,1,4.08,1.674,8.83,8.83,0,0,1,3,2.735,7.232,7.232,0,0,1,1.151,4.169,8.1,8.1,0,0,1-1.2,4.484,9.6,9.6,0,0,1-3.243,3.063,15.641,15.641,0,0,1-4.618,1.779,24.571,24.571,0,0,1-5.32.567" fill="#f28e1e"/>
    <path id="Trazado_19" data-name="Trazado 19" d="M2421.49,597.835a22.578,22.578,0,0,1-5.4-.627,15.259,15.259,0,0,1-4.543-1.883,9.7,9.7,0,0,1-3.138-3.123,8.067,8.067,0,0,1-1.151-4.32V587.2h7.831v.538a3.133,3.133,0,0,0,1.778,2.915,10.2,10.2,0,0,0,4.857.971,13.309,13.309,0,0,0,3.154-.359,5.911,5.911,0,0,0,2.391-1.106,2.36,2.36,0,0,0,.911-1.913,2.766,2.766,0,0,0-1.927-2.689,28.525,28.525,0,0,0-6.053-1.466,38.3,38.3,0,0,1-4.483-1.045,16.83,16.83,0,0,1-4.02-1.764,9.12,9.12,0,0,1-2.9-2.75,7.075,7.075,0,0,1-1.091-4.005,7.731,7.731,0,0,1,1.868-5.275A11.627,11.627,0,0,1,2414.6,566a20.909,20.909,0,0,1,6.949-1.106,18.9,18.9,0,0,1,6.785,1.2,12.313,12.313,0,0,1,5.066,3.438,8.017,8.017,0,0,1,1.928,5.41v.477h-7.771v-.388a3.031,3.031,0,0,0-.867-2.241,5.273,5.273,0,0,0-2.242-1.286,9.923,9.923,0,0,0-2.9-.418,14.257,14.257,0,0,0-2.779.284,5.944,5.944,0,0,0-2.391.986,2.289,2.289,0,0,0-.957,1.958,2.328,2.328,0,0,0,.987,1.943,8.215,8.215,0,0,0,2.749,1.24,39.585,39.585,0,0,0,4.065.881,40.783,40.783,0,0,1,4.409.987,18.438,18.438,0,0,1,4.08,1.674,8.825,8.825,0,0,1,3,2.735,7.234,7.234,0,0,1,1.151,4.169,8.1,8.1,0,0,1-1.2,4.484,9.589,9.589,0,0,1-3.244,3.063,15.627,15.627,0,0,1-4.617,1.779,24.584,24.584,0,0,1-5.32.567" fill="#f28e1e"/>
  </g>
</svg>
